<svg id="visual" viewBox="0 0 960 540" width="960" height="540" xmlns="http://www.w3.org/2000/svg" xmlns:xlink="http://www.w3.org/1999/xlink" version="1.1"><rect x="0" y="0" width="960" height="540" fill="#001220"></rect><defs><linearGradient id="grad1_0" x1="43.8%" y1="100%" x2="100%" y2="0%"><stop offset="14.444444444444446%" stop-color="#8f661b" stop-opacity="1"></stop><stop offset="85.55555555555554%" stop-color="#8f661b" stop-opacity="1"></stop></linearGradient></defs><defs><linearGradient id="grad1_1" x1="43.8%" y1="100%" x2="100%" y2="0%"><stop offset="14.444444444444446%" stop-color="#8f661b" stop-opacity="1"></stop><stop offset="85.55555555555554%" stop-color="#904d29" stop-opacity="1"></stop></linearGradient></defs><defs><linearGradient id="grad1_2" x1="43.8%" y1="100%" x2="100%" y2="0%"><stop offset="14.444444444444446%" stop-color="#853937" stop-opacity="1"></stop><stop offset="85.55555555555554%" stop-color="#904d29" stop-opacity="1"></stop></linearGradient></defs><defs><linearGradient id="grad1_3" x1="43.8%" y1="100%" x2="100%" y2="0%"><stop offset="14.444444444444446%" stop-color="#853937" stop-opacity="1"></stop><stop offset="85.55555555555554%" stop-color="#6f2d42" stop-opacity="1"></stop></linearGradient></defs><defs><linearGradient id="grad1_4" x1="43.8%" y1="100%" x2="100%" y2="0%"><stop offset="14.444444444444446%" stop-color="#522745" stop-opacity="1"></stop><stop offset="85.55555555555554%" stop-color="#6f2d42" stop-opacity="1"></stop></linearGradient></defs><defs><linearGradient id="grad1_5" x1="43.8%" y1="100%" x2="100%" y2="0%"><stop offset="14.444444444444446%" stop-color="#522745" stop-opacity="1"></stop><stop offset="85.55555555555554%" stop-color="#332240" stop-opacity="1"></stop></linearGradient></defs><defs><linearGradient id="grad1_6" x1="43.8%" y1="100%" x2="100%" y2="0%"><stop offset="14.444444444444446%" stop-color="#161c32" stop-opacity="1"></stop><stop offset="85.55555555555554%" stop-color="#332240" stop-opacity="1"></stop></linearGradient></defs><defs><linearGradient id="grad1_7" x1="43.8%" y1="100%" x2="100%" y2="0%"><stop offset="14.444444444444446%" stop-color="#161c32" stop-opacity="1"></stop><stop offset="85.55555555555554%" stop-color="#001220" stop-opacity="1"></stop></linearGradient></defs><defs><linearGradient id="grad2_0" x1="0%" y1="100%" x2="56.3%" y2="0%"><stop offset="14.444444444444446%" stop-color="#8f661b" stop-opacity="1"></stop><stop offset="85.55555555555554%" stop-color="#8f661b" stop-opacity="1"></stop></linearGradient></defs><defs><linearGradient id="grad2_1" x1="0%" y1="100%" x2="56.3%" y2="0%"><stop offset="14.444444444444446%" stop-color="#904d29" stop-opacity="1"></stop><stop offset="85.55555555555554%" stop-color="#8f661b" stop-opacity="1"></stop></linearGradient></defs><defs><linearGradient id="grad2_2" x1="0%" y1="100%" x2="56.3%" y2="0%"><stop offset="14.444444444444446%" stop-color="#904d29" stop-opacity="1"></stop><stop offset="85.55555555555554%" stop-color="#853937" stop-opacity="1"></stop></linearGradient></defs><defs><linearGradient id="grad2_3" x1="0%" y1="100%" x2="56.3%" y2="0%"><stop offset="14.444444444444446%" stop-color="#6f2d42" stop-opacity="1"></stop><stop offset="85.55555555555554%" stop-color="#853937" stop-opacity="1"></stop></linearGradient></defs><defs><linearGradient id="grad2_4" x1="0%" y1="100%" x2="56.3%" y2="0%"><stop offset="14.444444444444446%" stop-color="#6f2d42" stop-opacity="1"></stop><stop offset="85.55555555555554%" stop-color="#522745" stop-opacity="1"></stop></linearGradient></defs><defs><linearGradient id="grad2_5" x1="0%" y1="100%" x2="56.3%" y2="0%"><stop offset="14.444444444444446%" stop-color="#332240" stop-opacity="1"></stop><stop offset="85.55555555555554%" stop-color="#522745" stop-opacity="1"></stop></linearGradient></defs><defs><linearGradient id="grad2_6" x1="0%" y1="100%" x2="56.3%" y2="0%"><stop offset="14.444444444444446%" stop-color="#332240" stop-opacity="1"></stop><stop offset="85.55555555555554%" stop-color="#161c32" stop-opacity="1"></stop></linearGradient></defs><defs><linearGradient id="grad2_7" x1="0%" y1="100%" x2="56.3%" y2="0%"><stop offset="14.444444444444446%" stop-color="#001220" stop-opacity="1"></stop><stop offset="85.55555555555554%" stop-color="#161c32" stop-opacity="1"></stop></linearGradient></defs><g transform="translate(960, 540)"><path d="M-204 0C-218.7 -9.6 -233.4 -19.2 -238.3 -28.9C-243.1 -38.6 -238.1 -48.4 -234 -57.7C-229.9 -66.9 -226.8 -75.7 -221.6 -84C-216.4 -92.4 -209.2 -100.4 -196.6 -103.2C-183.9 -106 -165.8 -103.6 -163 -112.5C-160.1 -121.4 -172.5 -141.5 -173.7 -153.8C-174.8 -166.2 -164.7 -170.7 -157.2 -177.4C-149.6 -184.1 -144.6 -192.9 -137.5 -199.2C-130.3 -205.4 -121.1 -209.2 -112.5 -214.3C-103.9 -219.3 -95.9 -225.7 -86.2 -227.2C-76.4 -228.7 -64.8 -225.4 -54.1 -219.4C-43.4 -213.5 -33.7 -205 -24.8 -204.5C-16 -204 -8 -211.5 0 -219L0 0Z" fill="#0a1829"></path><path d="M-178.5 0C-191.4 -8.4 -204.2 -16.8 -208.5 -25.3C-212.7 -33.8 -208.3 -42.4 -204.7 -50.5C-201.2 -58.6 -198.4 -66.2 -193.9 -73.5C-189.4 -80.8 -183.1 -87.8 -172 -90.3C-160.9 -92.7 -145.1 -90.6 -142.6 -98.4C-140.1 -106.2 -150.9 -123.8 -151.9 -134.6C-153 -145.4 -144.1 -149.4 -137.5 -155.2C-130.9 -161.1 -126.5 -168.8 -120.3 -174.3C-114 -179.8 -105.9 -183.1 -98.4 -187.5C-90.9 -191.9 -84 -197.5 -75.4 -198.8C-66.8 -200.1 -56.7 -197.2 -47.3 -192C-38 -186.8 -29.5 -179.4 -21.7 -178.9C-14 -178.5 -7 -185.1 0 -191.6L0 0Z" fill="#241f3a"></path><path d="M-153 0C-164 -7.2 -175.1 -14.4 -178.7 -21.7C-182.3 -29 -178.6 -36.3 -175.5 -43.3C-172.4 -50.2 -170.1 -56.8 -166.2 -63C-162.3 -69.3 -156.9 -75.3 -147.4 -77.4C-137.9 -79.5 -124.4 -77.7 -122.2 -84.4C-120.1 -91 -129.4 -106.1 -130.2 -115.4C-131.1 -124.6 -123.5 -128 -117.9 -133C-112.2 -138.1 -108.5 -144.7 -103.1 -149.4C-97.8 -154.1 -90.8 -156.9 -84.3 -160.7C-77.9 -164.5 -72 -169.3 -64.6 -170.4C-57.3 -171.5 -48.6 -169 -40.6 -164.6C-32.6 -160.1 -25.3 -153.7 -18.6 -153.4C-12 -153 -6 -158.6 0 -164.2L0 0Z" fill="#432544"></path><path d="M-127.5 0C-136.7 -6 -145.9 -12 -148.9 -18.1C-151.9 -24.1 -148.8 -30.3 -146.2 -36C-143.7 -41.8 -141.7 -47.3 -138.5 -52.5C-135.3 -57.7 -130.8 -62.7 -122.9 -64.5C-114.9 -66.2 -103.6 -64.7 -101.8 -70.3C-100.1 -75.9 -107.8 -88.4 -108.5 -96.2C-109.3 -103.9 -102.9 -106.7 -98.2 -110.9C-93.5 -115 -90.4 -120.5 -85.9 -124.5C-81.5 -128.4 -75.7 -130.8 -70.3 -133.9C-64.9 -137.1 -60 -141.1 -53.9 -142C-47.7 -142.9 -40.5 -140.9 -33.8 -137.1C-27.1 -133.4 -21.1 -128.1 -15.5 -127.8C-10 -127.5 -5 -132.2 0 -136.9L0 0Z" fill="#612944"></path><path d="M-102 0C-109.4 -4.8 -116.7 -9.6 -119.1 -14.5C-121.5 -19.3 -119 -24.2 -117 -28.8C-115 -33.5 -113.4 -37.8 -110.8 -42C-108.2 -46.2 -104.6 -50.2 -98.3 -51.6C-92 -53 -82.9 -51.8 -81.5 -56.2C-80 -60.7 -86.3 -70.8 -86.8 -76.9C-87.4 -83.1 -82.4 -85.4 -78.6 -88.7C-74.8 -92 -72.3 -96.4 -68.7 -99.6C-65.2 -102.7 -60.5 -104.6 -56.2 -107.1C-51.9 -109.7 -48 -112.9 -43.1 -113.6C-38.2 -114.4 -32.4 -112.7 -27 -109.7C-21.7 -106.8 -16.8 -102.5 -12.4 -102.2C-8 -102 -4 -105.7 0 -109.5L0 0Z" fill="#7b323d"></path><path d="M-76.5 0C-82 -3.6 -87.5 -7.2 -89.3 -10.8C-91.2 -14.5 -89.3 -18.2 -87.7 -21.6C-86.2 -25.1 -85 -28.4 -83.1 -31.5C-81.2 -34.6 -78.5 -37.6 -73.7 -38.7C-69 -39.7 -62.2 -38.8 -61.1 -42.2C-60 -45.5 -64.7 -53.1 -65.1 -57.7C-65.6 -62.3 -61.8 -64 -58.9 -66.5C-56.1 -69 -54.2 -72.3 -51.6 -74.7C-48.9 -77 -45.4 -78.5 -42.2 -80.4C-38.9 -82.3 -36 -84.6 -32.3 -85.2C-28.6 -85.8 -24.3 -84.5 -20.3 -82.3C-16.3 -80.1 -12.6 -76.9 -9.3 -76.7C-6 -76.5 -3 -79.3 0 -82.1L0 0Z" fill="#8c4230"></path><path d="M-51 0C-54.7 -2.4 -58.4 -4.8 -59.6 -7.2C-60.8 -9.7 -59.5 -12.1 -58.5 -14.4C-57.5 -16.7 -56.7 -18.9 -55.4 -21C-54.1 -23.1 -52.3 -25.1 -49.1 -25.8C-46 -26.5 -41.5 -25.9 -40.7 -28.1C-40 -30.3 -43.1 -35.4 -43.4 -38.5C-43.7 -41.5 -41.2 -42.7 -39.3 -44.3C-37.4 -46 -36.2 -48.2 -34.4 -49.8C-32.6 -51.4 -30.3 -52.3 -28.1 -53.6C-26 -54.8 -24 -56.4 -21.5 -56.8C-19.1 -57.2 -16.2 -56.3 -13.5 -54.9C-10.9 -53.4 -8.4 -51.2 -6.2 -51.1C-4 -51 -2 -52.9 0 -54.7L0 0Z" fill="#915921"></path><path d="M-25.5 0C-27.3 -1.2 -29.2 -2.4 -29.8 -3.6C-30.4 -4.8 -29.8 -6.1 -29.2 -7.2C-28.7 -8.4 -28.3 -9.5 -27.7 -10.5C-27.1 -11.5 -26.2 -12.5 -24.6 -12.9C-23 -13.2 -20.7 -12.9 -20.4 -14.1C-20 -15.2 -21.6 -17.7 -21.7 -19.2C-21.9 -20.8 -20.6 -21.3 -19.6 -22.2C-18.7 -23 -18.1 -24.1 -17.2 -24.9C-16.3 -25.7 -15.1 -26.2 -14.1 -26.8C-13 -27.4 -12 -28.2 -10.8 -28.4C-9.5 -28.6 -8.1 -28.2 -6.8 -27.4C-5.4 -26.7 -4.2 -25.6 -3.1 -25.6C-2 -25.5 -1 -26.4 0 -27.4L0 0Z" fill="#8f661b"></path></g><g transform="translate(0, 0)"><path d="M221 0C214.1 7.6 207.1 15.2 213.4 25.9C219.7 36.6 239.2 50.4 235.9 58.2C232.7 65.9 206.6 67.7 199.2 75.5C191.7 83.3 203 97.1 201.9 106C200.8 114.8 187.3 118.6 176.9 122.1C166.6 125.7 159.4 128.9 158.7 140.6C158 152.2 163.7 172.3 156.5 176.6C149.3 181 129.2 169.7 121 175.3C112.8 180.9 116.5 203.4 112 213.4C107.5 223.4 95 220.9 84.8 223.5C74.5 226 66.7 233.7 57.2 232.1C47.7 230.4 36.5 219.6 26.6 219.4C16.8 219.2 8.4 229.6 0 240L0 0Z" fill="#0a1829"></path><path d="M193.4 0C187.3 6.7 181.3 13.3 186.8 22.7C192.3 32 209.3 44.1 206.4 50.9C203.6 57.7 180.7 59.3 174.3 66.1C167.8 72.9 177.6 85 176.6 92.7C175.7 100.4 163.9 103.8 154.8 106.9C145.8 110 139.5 112.8 138.8 123C138.2 133.2 143.2 150.7 136.9 154.6C130.6 158.4 113.1 148.5 105.9 153.4C98.7 158.3 101.9 178 98 186.7C94.1 195.5 83.1 193.3 74.2 195.5C65.2 197.8 58.4 204.5 50 203C41.7 201.6 31.9 192.2 23.3 192C14.7 191.8 7.4 200.9 0 210L0 0Z" fill="#241f3a"></path><path d="M165.8 0C160.6 5.7 155.4 11.4 160.1 19.4C164.8 27.5 179.4 37.8 177 43.6C174.5 49.5 154.9 50.8 149.4 56.6C143.8 62.5 152.3 72.9 151.4 79.5C150.6 86.1 140.5 88.9 132.7 91.6C125 94.3 119.6 96.7 119 105.4C118.5 114.2 122.8 129.2 117.4 132.5C112 135.8 96.9 127.3 90.7 131.5C84.6 135.7 87.3 152.5 84 160C80.7 167.5 71.2 165.7 63.6 167.6C55.9 169.5 50 175.2 42.9 174C35.8 172.8 27.3 164.7 20 164.5C12.6 164.4 6.3 172.2 0 180L0 0Z" fill="#432544"></path><path d="M138.1 0C133.8 4.8 129.5 9.5 133.4 16.2C137.3 22.9 149.5 31.5 147.5 36.3C145.4 41.2 129.1 42.3 124.5 47.2C119.8 52.1 126.9 60.7 126.2 66.2C125.5 71.7 117 74.1 110.6 76.3C104.1 78.5 99.6 80.6 99.2 87.9C98.7 95.1 102.3 107.7 97.8 110.4C93.3 113.1 80.8 106.1 75.6 109.6C70.5 113.1 72.8 127.1 70 133.4C67.2 139.6 59.3 138.1 53 139.7C46.6 141.3 41.7 146 35.7 145C29.8 144 22.8 137.3 16.6 137.1C10.5 137 5.3 143.5 0 150L0 0Z" fill="#612944"></path><path d="M110.5 0C107 3.8 103.6 7.6 106.7 13C109.9 18.3 119.6 25.2 118 29.1C116.3 33 103.3 33.9 99.6 37.8C95.9 41.7 101.5 48.6 100.9 53C100.4 57.4 93.6 59.3 88.5 61.1C83.3 62.8 79.7 64.5 79.3 70.3C79 76.1 81.8 86.1 78.2 88.3C74.7 90.5 64.6 84.9 60.5 87.6C56.4 90.4 58.2 101.7 56 106.7C53.8 111.7 47.5 110.5 42.4 111.7C37.3 113 33.4 116.8 28.6 116C23.8 115.2 18.2 109.8 13.3 109.7C8.4 109.6 4.2 114.8 0 120L0 0Z" fill="#7b323d"></path><path d="M82.9 0C80.3 2.9 77.7 5.7 80 9.7C82.4 13.7 89.7 18.9 88.5 21.8C87.2 24.7 77.5 25.4 74.7 28.3C71.9 31.2 76.1 36.4 75.7 39.7C75.3 43 70.2 44.5 66.4 45.8C62.5 47.1 59.8 48.3 59.5 52.7C59.2 57.1 61.4 64.6 58.7 66.2C56 67.9 48.5 63.6 45.4 65.7C42.3 67.8 43.7 76.3 42 80C40.3 83.8 35.6 82.8 31.8 83.8C28 84.8 25 87.6 21.4 87C17.9 86.4 13.7 82.4 10 82.3C6.3 82.2 3.2 86.1 0 90L0 0Z" fill="#8c4230"></path><path d="M55.3 0C53.5 1.9 51.8 3.8 53.4 6.5C54.9 9.2 59.8 12.6 59 14.5C58.2 16.5 51.6 16.9 49.8 18.9C47.9 20.8 50.8 24.3 50.5 26.5C50.2 28.7 46.8 29.6 44.2 30.5C41.7 31.4 39.9 32.2 39.7 35.1C39.5 38.1 40.9 43.1 39.1 44.2C37.3 45.3 32.3 42.4 30.2 43.8C28.2 45.2 29.1 50.8 28 53.3C26.9 55.8 23.7 55.2 21.2 55.9C18.6 56.5 16.7 58.4 14.3 58C11.9 57.6 9.1 54.9 6.7 54.8C4.2 54.8 2.1 57.4 0 60L0 0Z" fill="#915921"></path><path d="M27.6 0C26.8 1 25.9 1.9 26.7 3.2C27.5 4.6 29.9 6.3 29.5 7.3C29.1 8.2 25.8 8.5 24.9 9.4C24 10.4 25.4 12.1 25.2 13.2C25.1 14.3 23.4 14.8 22.1 15.3C20.8 15.7 19.9 16.1 19.8 17.6C19.7 19 20.5 21.5 19.6 22.1C18.7 22.6 16.2 21.2 15.1 21.9C14.1 22.6 14.6 25.4 14 26.7C13.4 27.9 11.9 27.6 10.6 27.9C9.3 28.3 8.3 29.2 7.1 29C6 28.8 4.6 27.5 3.3 27.4C2.1 27.4 1.1 28.7 0 30L0 0Z" fill="#8f661b"></path></g></svg>